<mxfile host="Electron" agent="Mozilla/5.0 (Macintosh; Intel Mac OS X 10_15_7) AppleWebKit/537.36 (KHTML, like Gecko) draw.io/24.7.5 Chrome/126.0.6478.183 Electron/31.3.0 Safari/537.36" version="24.7.5">
  <diagram name="Page-1" id="_j3zMOZ4nDqqGJo5i7yL">
    <mxGraphModel dx="954" dy="727" grid="1" gridSize="10" guides="1" tooltips="1" connect="1" arrows="1" fold="1" page="1" pageScale="1" pageWidth="827" pageHeight="1169" math="0" shadow="0">
      <root>
        <mxCell id="0" />
        <mxCell id="1" parent="0" />
        <mxCell id="s2L5kvC3EsO6LouAXJWq-2" value="" style="shape=actor;whiteSpace=wrap;html=1;" vertex="1" parent="1">
          <mxGeometry x="50" y="20" width="40" height="60" as="geometry" />
        </mxCell>
        <mxCell id="s2L5kvC3EsO6LouAXJWq-5" value="Терминал&amp;nbsp;" style="whiteSpace=wrap;html=1;" vertex="1" parent="1">
          <mxGeometry x="220" y="20" width="120" height="60" as="geometry" />
        </mxCell>
        <mxCell id="s2L5kvC3EsO6LouAXJWq-6" value="Библ" style="whiteSpace=wrap;html=1;" vertex="1" parent="1">
          <mxGeometry x="480" y="20" width="120" height="60" as="geometry" />
        </mxCell>
        <mxCell id="s2L5kvC3EsO6LouAXJWq-7" value="" style="endArrow=none;html=1;rounded=0;entryX=0.5;entryY=1;entryDx=0;entryDy=0;edgeStyle=orthogonalEdgeStyle;" edge="1" parent="1" source="s2L5kvC3EsO6LouAXJWq-13" target="s2L5kvC3EsO6LouAXJWq-5">
          <mxGeometry width="50" height="50" relative="1" as="geometry">
            <mxPoint x="280" y="520" as="sourcePoint" />
            <mxPoint x="440" y="160" as="targetPoint" />
          </mxGeometry>
        </mxCell>
        <mxCell id="s2L5kvC3EsO6LouAXJWq-9" value="" style="endArrow=none;html=1;rounded=0;entryX=0.5;entryY=1;entryDx=0;entryDy=0;edgeStyle=orthogonalEdgeStyle;" edge="1" parent="1" source="s2L5kvC3EsO6LouAXJWq-15" target="s2L5kvC3EsO6LouAXJWq-6">
          <mxGeometry width="50" height="50" relative="1" as="geometry">
            <mxPoint x="540" y="520" as="sourcePoint" />
            <mxPoint x="440" y="160" as="targetPoint" />
          </mxGeometry>
        </mxCell>
        <mxCell id="s2L5kvC3EsO6LouAXJWq-10" value="" style="endArrow=none;html=1;rounded=0;entryX=0.5;entryY=1;entryDx=0;entryDy=0;edgeStyle=orthogonalEdgeStyle;" edge="1" parent="1" source="s2L5kvC3EsO6LouAXJWq-11" target="s2L5kvC3EsO6LouAXJWq-2">
          <mxGeometry width="50" height="50" relative="1" as="geometry">
            <mxPoint x="70" y="520" as="sourcePoint" />
            <mxPoint x="110" y="290" as="targetPoint" />
          </mxGeometry>
        </mxCell>
        <mxCell id="s2L5kvC3EsO6LouAXJWq-12" value="" style="endArrow=none;html=1;rounded=0;entryX=0.5;entryY=1;entryDx=0;entryDy=0;edgeStyle=orthogonalEdgeStyle;" edge="1" parent="1" source="s2L5kvC3EsO6LouAXJWq-17" target="s2L5kvC3EsO6LouAXJWq-11">
          <mxGeometry width="50" height="50" relative="1" as="geometry">
            <mxPoint x="70" y="520" as="sourcePoint" />
            <mxPoint x="70" y="80" as="targetPoint" />
          </mxGeometry>
        </mxCell>
        <mxCell id="s2L5kvC3EsO6LouAXJWq-22" style="edgeStyle=orthogonalEdgeStyle;rounded=0;orthogonalLoop=1;jettySize=auto;html=1;exitX=1;exitY=0.5;exitDx=0;exitDy=0;entryX=0;entryY=0.5;entryDx=0;entryDy=0;" edge="1" parent="1" source="s2L5kvC3EsO6LouAXJWq-11" target="s2L5kvC3EsO6LouAXJWq-13">
          <mxGeometry relative="1" as="geometry">
            <Array as="points">
              <mxPoint x="80" y="210" />
              <mxPoint x="270" y="210" />
            </Array>
          </mxGeometry>
        </mxCell>
        <mxCell id="s2L5kvC3EsO6LouAXJWq-11" value="" style="whiteSpace=wrap;html=1;" vertex="1" parent="1">
          <mxGeometry x="60" y="190" width="20" height="60" as="geometry" />
        </mxCell>
        <mxCell id="s2L5kvC3EsO6LouAXJWq-14" value="" style="endArrow=none;html=1;rounded=0;entryX=0.5;entryY=1;entryDx=0;entryDy=0;edgeStyle=orthogonalEdgeStyle;" edge="1" parent="1" source="s2L5kvC3EsO6LouAXJWq-19" target="s2L5kvC3EsO6LouAXJWq-13">
          <mxGeometry width="50" height="50" relative="1" as="geometry">
            <mxPoint x="280" y="520" as="sourcePoint" />
            <mxPoint x="280" y="80" as="targetPoint" />
          </mxGeometry>
        </mxCell>
        <mxCell id="s2L5kvC3EsO6LouAXJWq-26" style="edgeStyle=orthogonalEdgeStyle;rounded=0;orthogonalLoop=1;jettySize=auto;html=1;exitX=1;exitY=0.5;exitDx=0;exitDy=0;entryX=0;entryY=0.5;entryDx=0;entryDy=0;" edge="1" parent="1" source="s2L5kvC3EsO6LouAXJWq-13" target="s2L5kvC3EsO6LouAXJWq-15">
          <mxGeometry relative="1" as="geometry">
            <Array as="points">
              <mxPoint x="290" y="210" />
              <mxPoint x="530" y="210" />
            </Array>
          </mxGeometry>
        </mxCell>
        <mxCell id="s2L5kvC3EsO6LouAXJWq-28" style="edgeStyle=orthogonalEdgeStyle;rounded=0;orthogonalLoop=1;jettySize=auto;html=1;exitX=0;exitY=0.75;exitDx=0;exitDy=0;entryX=1;entryY=0.75;entryDx=0;entryDy=0;" edge="1" parent="1" source="s2L5kvC3EsO6LouAXJWq-13" target="s2L5kvC3EsO6LouAXJWq-11">
          <mxGeometry relative="1" as="geometry" />
        </mxCell>
        <mxCell id="s2L5kvC3EsO6LouAXJWq-13" value="" style="whiteSpace=wrap;html=1;" vertex="1" parent="1">
          <mxGeometry x="270" y="190" width="20" height="60" as="geometry" />
        </mxCell>
        <mxCell id="s2L5kvC3EsO6LouAXJWq-16" value="" style="endArrow=none;html=1;rounded=0;entryX=0.5;entryY=1;entryDx=0;entryDy=0;edgeStyle=orthogonalEdgeStyle;" edge="1" parent="1" target="s2L5kvC3EsO6LouAXJWq-15">
          <mxGeometry width="50" height="50" relative="1" as="geometry">
            <mxPoint x="540" y="520" as="sourcePoint" />
            <mxPoint x="540" y="80" as="targetPoint" />
          </mxGeometry>
        </mxCell>
        <mxCell id="s2L5kvC3EsO6LouAXJWq-27" style="edgeStyle=orthogonalEdgeStyle;rounded=0;orthogonalLoop=1;jettySize=auto;html=1;exitX=0;exitY=0.75;exitDx=0;exitDy=0;entryX=1;entryY=0.75;entryDx=0;entryDy=0;" edge="1" parent="1" source="s2L5kvC3EsO6LouAXJWq-15" target="s2L5kvC3EsO6LouAXJWq-13">
          <mxGeometry relative="1" as="geometry" />
        </mxCell>
        <mxCell id="s2L5kvC3EsO6LouAXJWq-15" value="" style="whiteSpace=wrap;html=1;" vertex="1" parent="1">
          <mxGeometry x="530" y="190" width="20" height="60" as="geometry" />
        </mxCell>
        <mxCell id="s2L5kvC3EsO6LouAXJWq-18" value="" style="endArrow=none;html=1;rounded=0;entryX=0.5;entryY=1;entryDx=0;entryDy=0;edgeStyle=orthogonalEdgeStyle;" edge="1" parent="1" target="s2L5kvC3EsO6LouAXJWq-17">
          <mxGeometry width="50" height="50" relative="1" as="geometry">
            <mxPoint x="70" y="520" as="sourcePoint" />
            <mxPoint x="70" y="250" as="targetPoint" />
          </mxGeometry>
        </mxCell>
        <mxCell id="s2L5kvC3EsO6LouAXJWq-31" style="rounded=0;orthogonalLoop=1;jettySize=auto;html=1;exitX=1;exitY=0.25;exitDx=0;exitDy=0;entryX=0;entryY=0.25;entryDx=0;entryDy=0;" edge="1" parent="1" source="s2L5kvC3EsO6LouAXJWq-17" target="s2L5kvC3EsO6LouAXJWq-19">
          <mxGeometry relative="1" as="geometry" />
        </mxCell>
        <mxCell id="s2L5kvC3EsO6LouAXJWq-17" value="" style="whiteSpace=wrap;html=1;" vertex="1" parent="1">
          <mxGeometry x="60" y="320" width="20" height="140" as="geometry" />
        </mxCell>
        <mxCell id="s2L5kvC3EsO6LouAXJWq-20" value="" style="endArrow=none;html=1;rounded=0;entryX=0.5;entryY=1;entryDx=0;entryDy=0;edgeStyle=orthogonalEdgeStyle;" edge="1" parent="1" target="s2L5kvC3EsO6LouAXJWq-19">
          <mxGeometry width="50" height="50" relative="1" as="geometry">
            <mxPoint x="280" y="480" as="sourcePoint" />
            <mxPoint x="280" y="250" as="targetPoint" />
          </mxGeometry>
        </mxCell>
        <mxCell id="s2L5kvC3EsO6LouAXJWq-33" style="edgeStyle=orthogonalEdgeStyle;rounded=0;orthogonalLoop=1;jettySize=auto;html=1;exitX=1;exitY=0.25;exitDx=0;exitDy=0;entryX=0;entryY=0.25;entryDx=0;entryDy=0;" edge="1" parent="1" source="s2L5kvC3EsO6LouAXJWq-19" target="s2L5kvC3EsO6LouAXJWq-21">
          <mxGeometry relative="1" as="geometry" />
        </mxCell>
        <mxCell id="s2L5kvC3EsO6LouAXJWq-19" value="" style="whiteSpace=wrap;html=1;" vertex="1" parent="1">
          <mxGeometry x="270" y="360" width="20" height="60" as="geometry" />
        </mxCell>
        <mxCell id="s2L5kvC3EsO6LouAXJWq-34" style="edgeStyle=orthogonalEdgeStyle;rounded=0;orthogonalLoop=1;jettySize=auto;html=1;exitX=0;exitY=0.75;exitDx=0;exitDy=0;entryX=1;entryY=0.75;entryDx=0;entryDy=0;" edge="1" parent="1" source="s2L5kvC3EsO6LouAXJWq-21" target="s2L5kvC3EsO6LouAXJWq-19">
          <mxGeometry relative="1" as="geometry" />
        </mxCell>
        <mxCell id="s2L5kvC3EsO6LouAXJWq-21" value="" style="whiteSpace=wrap;html=1;" vertex="1" parent="1">
          <mxGeometry x="530" y="360" width="20" height="60" as="geometry" />
        </mxCell>
        <mxCell id="s2L5kvC3EsO6LouAXJWq-24" value="Запрос книги" style="text;html=1;align=center;verticalAlign=middle;resizable=0;points=[];autosize=1;strokeColor=none;fillColor=none;" vertex="1" parent="1">
          <mxGeometry x="120" y="180" width="100" height="30" as="geometry" />
        </mxCell>
        <mxCell id="s2L5kvC3EsO6LouAXJWq-25" value="Есть ли книга?" style="text;html=1;align=center;verticalAlign=middle;resizable=0;points=[];autosize=1;strokeColor=none;fillColor=none;" vertex="1" parent="1">
          <mxGeometry x="115" y="230" width="110" height="30" as="geometry" />
        </mxCell>
        <mxCell id="s2L5kvC3EsO6LouAXJWq-29" value="Запрос наличия книги по индексу" style="text;html=1;align=center;verticalAlign=middle;resizable=0;points=[];autosize=1;strokeColor=none;fillColor=none;" vertex="1" parent="1">
          <mxGeometry x="300" y="180" width="220" height="30" as="geometry" />
        </mxCell>
        <mxCell id="s2L5kvC3EsO6LouAXJWq-30" value="Есть/ нет, выдать/ нет" style="text;html=1;align=center;verticalAlign=middle;resizable=0;points=[];autosize=1;strokeColor=none;fillColor=none;" vertex="1" parent="1">
          <mxGeometry x="335" y="240" width="150" height="30" as="geometry" />
        </mxCell>
        <mxCell id="s2L5kvC3EsO6LouAXJWq-32" style="rounded=0;orthogonalLoop=1;jettySize=auto;html=1;exitX=0;exitY=0.75;exitDx=0;exitDy=0;entryX=1.1;entryY=0.864;entryDx=0;entryDy=0;entryPerimeter=0;" edge="1" parent="1" source="s2L5kvC3EsO6LouAXJWq-19" target="s2L5kvC3EsO6LouAXJWq-17">
          <mxGeometry relative="1" as="geometry" />
        </mxCell>
        <mxCell id="s2L5kvC3EsO6LouAXJWq-35" value="Запрос на получение" style="text;html=1;align=center;verticalAlign=middle;resizable=0;points=[];autosize=1;strokeColor=none;fillColor=none;" vertex="1" parent="1">
          <mxGeometry x="110" y="330" width="140" height="30" as="geometry" />
        </mxCell>
        <mxCell id="s2L5kvC3EsO6LouAXJWq-36" value="Ответ" style="text;html=1;align=center;verticalAlign=middle;resizable=0;points=[];autosize=1;strokeColor=none;fillColor=none;" vertex="1" parent="1">
          <mxGeometry x="140" y="430" width="60" height="30" as="geometry" />
        </mxCell>
        <mxCell id="s2L5kvC3EsO6LouAXJWq-37" value="Можно ли взять на руки?" style="text;html=1;align=center;verticalAlign=middle;resizable=0;points=[];autosize=1;strokeColor=none;fillColor=none;" vertex="1" parent="1">
          <mxGeometry x="325" y="340" width="170" height="30" as="geometry" />
        </mxCell>
        <mxCell id="s2L5kvC3EsO6LouAXJWq-38" value="Ответ по получению" style="text;html=1;align=center;verticalAlign=middle;resizable=0;points=[];autosize=1;strokeColor=none;fillColor=none;" vertex="1" parent="1">
          <mxGeometry x="340" y="408" width="140" height="30" as="geometry" />
        </mxCell>
      </root>
    </mxGraphModel>
  </diagram>
</mxfile>
